# xmcd CD database file
#
# Track frame offsets:
#	150
#	19585
#	45370
#	65175
#	84600
#
# Disc length: 1467 seconds
#
# Revision: 0
# Processed by: cddbd v1.5PL3 Copyright (c) Steve Scherf et al.
# Submitted via: CDex 1.40Release
#
DISCID=3805b905
DTITLE=TRANSTIC NERVE - マナザシノムコウヘ
DYEAR=2001
DGENRE=Rock
TTITLE0=マナザシノムコウヘ
TTITLE1=Snow tale
TTITLE2=愛とパラノイア -some lies mix-
TTITLE3=マナザシノムコウヘ(off vocal version)
TTITLE4=Snow tale(off vocal version)
EXTD=YEAR: 2001 ID3G: 17
EXTT0=
EXTT1=
EXTT2=
EXTT3=
EXTT4=
PLAYORDER=
